PathFileType	4	(X/Y/Z)	C:\Users\°ÂÌØÂü\Desktop\20210112\bx_y_5_501-Unnamed.trc
DataRate	CameraRate	NumFrames	NumMarkers	Units	OrigDataRate	OrigDataStartFrame	OrigNumFrames
50.00	50.00	       6	0	mm	50.00	455	       519
Frame#	Time	
		

455	9.080	-678.25391	274.41556	745.91144	-701.23828	287.13620	1551.88794	-626.02234	280.25262	875.02234	-687.27161	143.35524	575.13226	-716.15521	79.10728	215.55684	-584.76483	1.47527	805.51953	-714.21606	252.23964	637.69763	-609.76056	102.99345	1440.80383	-785.41437	106.55252	1035.70593	-721.98334	246.77223	575.69019	-767.22937	256.19730	503.84534	-672.34637	204.39165	531.79016	-699.64838	-67.54010	1561.96436	-711.09863	152.27873	216.36069	-771.30005	222.98900	205.06642	-882.78003	296.21722	144.64955	-675.57758	173.46364	157.07532	-594.42780	223.09009	173.04802	-666.54395	299.17468	159.82220	-629.39978	307.33551	161.47719	-560.76794	262.23749	165.17973	-528.07397	304.01920	146.39075	-727.47821	90.59299	1850.11279	-665.58313	22.16055	521.45563	-624.79510	-77.83463	159.67641	-560.48865	-41.51617	162.69240	-517.44464	-72.64440	142.55415	-602.70544	19.05605	165.80673	-675.14008	54.87665	157.05785	-796.05585	172.26610	183.93474	-690.29181	84.70950	578.85138	-794.44196	57.02022	174.79774				-762.40210	-30.85904	489.93991	-767.66089	-4.06752	207.52293	-875.93195	-78.89499	141.20357	-665.23083	-67.28556	163.04230	-713.05682	-21.79859	569.19196				-576.22150	210.87178	821.40674	-595.44940	-7.43603	1050.88257	-574.52979	218.92311	1070.63367				-698.28937	-23.97639	614.65033	
456	9.100	-678.46021	274.82755	746.18549	-701.14984	287.35440	1551.71118	-626.37762	279.85928	874.54541	-687.59637	143.35504	574.85205	-716.29852	79.19149	215.70364	-585.06842	1.60635	805.64172	-714.42859	252.36174	637.47876	-609.63416	103.08729	1440.75989	-785.91168	106.43662	1035.93274	-722.02112	247.08527	575.68768	-767.39856	256.35791	503.99625	-671.99945	204.57938	531.81348	-699.54590	-67.38034	1561.81934	-711.09863	152.27873	216.36069	-771.33215	222.92462	205.07396	-882.73047	296.08084	144.47804	-675.24341	173.40335	157.21428	-594.54236	223.27888	173.16113	-666.54395	299.17468	159.82220	-629.26416	307.20236	161.60725	-560.86993	262.26471	165.29927	-528.16980	304.08307	146.45369	-726.42365	90.68407	1850.42749	-666.36829	22.41231	521.40192	-624.78717	-77.69541	159.49916	-560.61133	-41.64951	162.64612	-517.52179	-72.54570	142.64195	-602.62189	19.05807	165.97949	-675.14008	54.87665	157.05785	-795.99567	172.35431	183.79375	-690.86951	84.87950	578.87451	-794.31512	56.81863	174.79744	-678.30798	-44.73989	707.86096	-762.96478	-31.38540	490.01498	-767.66089	-4.06752	207.52293	-875.94739	-78.97127	141.10255	-665.29736	-67.18723	162.93272	-713.45264	-21.81007	568.97705				-576.33917	211.02095	821.42786	-595.68555	-7.33256	1050.71301	-574.52979	218.92311	1070.63367				-698.93414	-24.64767	614.55280	
457	9.120	-678.99103	274.80261	745.98303	-701.13690	287.49835	1551.62903	-626.89874	280.13812	874.30603	-688.31683	143.64160	574.44489	-716.15521	79.10728	215.55684	-585.61786	1.52388	805.66370	-714.66724	252.38881	637.78583	-609.56512	103.11279	1440.70239	-786.20111	106.73041	1035.76831	-722.41656	247.05705	575.82281	-767.55133	256.28931	503.90646	-672.21155	204.45807	531.68390	-699.51257	-67.31293	1561.87341	-711.15466	152.42155	216.23610	-771.20618	222.98807	204.94379	-882.74347	296.01157	144.45781	-675.13965	173.49332	156.84608	-594.36249	223.25835	173.02013	-666.55347	299.13010	159.72784	-629.33118	307.44028	161.51573	-560.86993	262.26471	165.29927	-527.99841	304.00455	146.44089	-725.85492	90.85189	1850.40674	-666.78235	22.10348	521.37170	-624.71411	-77.69117	159.62558	-560.43933	-41.67394	162.47852	-517.71722	-72.51682	142.21594	-602.60303	18.88009	165.96568	-675.05396	54.85137	157.18826	-796.05585	172.26610	183.93474	-691.56805	84.83911	578.86426	-794.23383	56.62901	174.93027	-678.72302	-44.93382	707.78845	-763.41620	-31.44195	490.17255	-767.77734	-4.10357	207.52960	-875.93195	-78.89499	141.20357	-665.36084	-67.30157	162.95935	-714.13654	-21.63551	568.88531				-576.53723	211.20486	821.21100	-595.81195	-7.25292	1050.65771	-574.83020	218.98010	1070.33032				-699.90320	-24.45907	614.88135	
458	9.140	-679.25592	274.63443	745.60730	-701.26434	287.45615	1551.41174	-627.09137	280.35959	874.58221	-688.65356	143.57092	574.11487	-716.50867	78.75875	215.43381	-585.87207	1.56082	805.51617	-715.02972	252.32256	637.55994	-609.76013	103.08701	1440.77100	-786.21460	106.75343	1035.68665	-722.70984	247.21388	575.75171	-767.72290	256.35474	503.80557	-672.31018	204.60962	531.91461	-699.44476	-67.28685	1561.90857	-711.00934	152.23827	216.44478	-771.35852	222.78806	204.87698	-882.63641	296.19785	144.62160	-675.42877	173.47476	157.01213	-594.42755	223.02321	173.11472	-666.49091	299.23523	159.93524	-629.35651	307.20563	161.51195	-560.85266	262.33710	165.20847	-528.07397	304.01920	146.39075	-724.71533	91.64951	1850.77612	-667.25110	22.22106	521.52228	-624.78137	-77.96944	159.68207	-560.54840	-41.59669	162.52266	-517.62183	-72.75853	142.27335	-602.76727	19.01295	165.95915	-675.05396	54.85137	157.18826	-796.01599	172.32803	183.96959	-691.79407	84.56620	578.71912	-794.27026	56.82081	174.86819	-679.08081	-44.81638	707.49487	-763.61206	-31.45054	490.19916	-767.71820	-4.15879	207.58284	-875.64880	-79.04969	141.18465	-665.39648	-67.28797	162.99200	-714.75946	-21.49301	568.65186				-576.61877	211.23570	821.24866	-596.10394	-7.19625	1050.65442	-575.14960	219.25317	1070.27600				-700.27826	-24.61151	614.69379	
459	9.160	-679.40735	274.83844	745.53308	-701.13037	287.71304	1551.34961	-627.61804	280.48383	874.42480	-688.49689	143.63330	574.28497	-716.53003	78.92151	215.69041	-586.29547	1.75729	805.33539	-715.22968	252.39917	637.74115	-609.92163	103.19341	1440.45374	-786.34918	106.70239	1035.93286	-722.86401	247.17598	575.63873	-767.77136	256.41983	503.82239	-672.58942	204.78957	531.89368	-699.50543	-67.01256	1561.95105	-711.09863	152.27873	216.36069	-771.37097	222.84650	204.97667	-882.55450	296.05902	144.50241	-675.54016	173.56140	156.70663	-594.52948	223.08702	173.09117	-666.53699	299.24960	159.76201	-629.43884	307.17557	161.72993	-560.77960	262.21683	165.24333	-527.99841	304.00455	146.44089	-723.69684	92.10720	1850.80334	-667.25110	22.22106	521.52228	-624.70038	-77.82598	159.63124	-560.82629	-41.54622	162.66005	-517.66559	-72.72284	142.23668	-602.54712	18.96372	166.00009	-675.05396	54.85137	157.18826	-796.07343	172.42229	183.78664	-691.98285	84.41283	578.69342	-794.40698	56.73642	174.96352	-679.55676	-44.83417	707.12122	-764.22217	-31.27299	489.94800	-767.81152	-4.16936	207.55336	-875.96442	-79.11864	140.93123	-665.33826	-67.22353	163.02229	-715.26422	-21.50449	568.70343				-576.54083	211.41905	821.49481	-596.15143	-7.01791	1050.87793	-575.60443	219.23672	1070.17664				-700.61945	-24.12915	614.54181	
460	9.180	-679.96149	275.13214	745.87726	-701.35742	287.92023	1551.23059	-627.60590	280.42868	874.48749	-688.81079	143.52670	574.24872	-716.61633	78.58790	215.62306	-586.51440	1.97737	805.15875	-715.55902	253.44728	638.18121	-609.92163	103.19341	1440.45374	-786.57416	106.92276	1035.89319	-723.18372	247.11723	575.57764	-767.90686	256.61877	503.78177	-672.62946	204.93880	532.15002	-699.26123	-66.64353	1562.06921	-711.09863	152.27873	216.36069	-771.47668	222.80136	204.92743	-882.66003	296.11053	144.51537	-675.24127	173.26582	156.94147	-594.66882	223.17932	173.09891	-666.54395	299.17468	159.82220	-629.37439	307.38940	161.36438	-560.92664	262.33673	165.14191	-528.12280	304.28763	146.42749	-722.79706	92.54234	1850.99707	-667.31775	22.26460	521.59711	-624.71411	-77.69117	159.62558	-560.54083	-41.67679	162.71982	-517.68671	-72.77579	142.65150	-602.57678	18.94536	166.22896	-675.14008	54.87665	157.05785	-796.04779	172.18913	184.02560	-692.33832	84.39894	578.39307	-794.39160	56.81293	174.82523	-679.60901	-44.90816	707.38531	-764.34766	-31.21809	489.88092	-767.66522	-4.09291	207.45509	-876.13574	-78.93236	141.04871	-665.36627	-67.04922	162.96971	-715.56201	-21.10523	568.56396				-577.24707	211.41734	821.11877	-596.43219	-6.97627	1050.76794	-575.67877	219.28348	1070.07019				-700.74933	-24.30415	614.62421	
